# xmcd
#
# Track frame offsets: 
#        225
#        19734
#        36495
#        53385
#        69030
#        86362
#        101228
#        121732
#        132383
#        147173
#        162234
#        181287
#        193433
#
# Disc length: 2775 seconds
#
# Revision: 0
# Processed by: cddbd v1.4PL0 Copyright (c) Steve Scherf et al.
# Submitted via: ExactAudioCopy v0.90b4
#
DISCID=af0ad40d
DTITLE=Roberto Ciotti - Changes
DYEAR=1996
DGENRE=Blues
TTITLE0=Changes
TTITLE1=I Wanna Love You Babe
TTITLE2=Let Me Blow The Night
TTITLE3=Foxy Lady
TTITLE4=I'll Be With You
TTITLE5=Goin' Wanderin'
TTITLE6=Castles Of Sand
TTITLE7=Don't Recall The Past
TTITLE8=Me And The Wind
TTITLE9=My Secret Place
TTITLE10=I Trust Myself
TTITLE11=Prisoner Of Fear
TTITLE12=Need More
EXTD=
EXTT0=
EXTT1=
EXTT2=
EXTT3=
EXTT4=
EXTT5=
EXTT6=
EXTT7=
EXTT8=
EXTT9=
EXTT10=
EXTT11=
EXTT12=
PLAYORDER=
